<svg width="136" height="37" viewBox="0 0 136 37" fill="none" xmlns="http://www.w3.org/2000/svg">
<path d="M58.0016 22.8805C58.0016 18.9673 54.3794 18.2926 51.6374 17.7866C49.4032 17.3818 48.5907 17.1456 48.5907 16.2348C48.5907 15.324 49.3693 14.9191 50.4864 14.9191C51.739 14.9191 53.4316 15.3577 54.6164 16.4709L57.0876 13.2999C55.4288 11.6806 52.9576 10.8373 50.4864 10.8373C46.9659 10.8373 43.7499 12.6927 43.7499 16.4709C43.7499 20.6203 47.6767 21.3962 50.4187 21.9022C52.3821 22.2395 53.1269 22.5769 53.1269 23.4202C53.1269 24.1961 52.3483 24.5672 51.0958 24.5672C49.3016 24.5672 46.8643 23.7238 45.4764 21.9359L42.6328 25.2756C44.4947 27.4684 47.609 28.784 50.7234 28.784C54.5825 28.784 58.0016 26.6925 58.0016 22.8805Z" fill="currentColor"/>
<path d="M69.8514 10.8373C67.3126 10.8373 65.2814 11.8493 64.4352 13.3336V11.2421H59.6959V36.0369H64.5706V26.3889C65.6538 27.7382 67.5834 28.5816 69.8853 28.5816C74.9969 28.5816 78.0436 24.6009 78.0436 19.7094C78.0436 14.8517 75.0308 10.8373 69.8514 10.8373ZM68.9036 24.2636C66.297 24.2636 64.5706 22.3745 64.5706 19.7094C64.5706 17.0444 66.297 15.1216 68.9036 15.1216C71.544 15.1216 73.1351 17.1456 73.1351 19.7094C73.1351 22.3745 71.4425 24.2636 68.9036 24.2636Z" fill="currentColor"/>
<path d="M91.2057 11.3433C90.3932 11.1072 89.6485 11.006 88.836 11.006C86.8049 11.006 84.9092 11.8493 84.1983 13.8396V11.2421H79.4591V28.5816H84.3337V19.5745C84.3337 16.9432 85.9925 15.4926 88.2606 15.4926C88.9714 15.4926 89.7162 15.6276 90.4948 15.8974L91.2057 11.3433Z" fill="currentColor"/>
<path d="M95.2104 3.28076C93.4163 3.28076 92.0284 4.63014 92.0284 6.31686C92.0284 8.00359 93.4163 9.35296 95.2104 9.35296C97.0046 9.35296 98.3925 8.00359 98.3925 6.31686C98.3925 4.63014 97.0046 3.28076 95.2104 3.28076ZM92.7393 28.5816H97.6816V11.2421H92.7393V28.5816Z" fill="currentColor"/>
<path d="M109.698 10.8373C107.497 10.8373 105.534 11.7481 104.485 13.3336V11.2421H99.7454V28.5816H104.62V19.0685C104.62 16.4035 106.38 15.1553 108.073 15.1553C109.63 15.1553 111.018 16.1336 111.018 18.2251V28.5816H115.893V17.5504C115.893 12.9626 113.083 10.8373 109.698 10.8373Z" fill="currentColor"/>
<path d="M131.226 11.2421V13.4011C130.549 11.8156 128.45 10.8373 125.742 10.8373C120.563 10.8373 117.347 14.5481 117.347 19.507C117.347 24.6347 120.732 28.2105 125.708 28.2105C128.247 28.2105 130.143 27.4009 131.091 25.8154V28.0081C131.091 30.6057 129.161 32.1575 126.419 32.1575C124.219 32.1575 122.221 30.8755 121.375 28.8515L117.144 31.0105C118.532 34.3165 122.018 36.5092 126.25 36.5092C131.7 36.5092 135.999 33.0683 135.999 27.5358V11.2421H131.226ZM126.69 23.8925C124.049 23.8925 122.255 22.1721 122.255 19.507C122.255 16.7408 124.151 15.1216 126.69 15.1216C129.296 15.1216 131.124 16.7408 131.124 19.507C131.124 22.2733 129.296 23.8925 126.69 23.8925Z" fill="currentColor"/>
<g clip-path="url(#clip0)">
<path fill-rule="evenodd" clip-rule="evenodd" d="M4.36198 1.03924V1.03039C5.93173 0.125351 7.86496 -0.219727 9.98944 0.140519C11.76 0.440092 13.7027 1.25033 15.6359 2.5725C17.3874 3.77332 19.1484 5.40517 20.7563 7.36946C22.3165 9.27434 23.7331 11.4914 24.8815 13.845L19.9048 16.253C18.9477 14.2887 17.7707 12.4369 16.4684 10.848C15.2145 9.32237 13.8654 8.04191 12.4964 7.11033C11.3195 6.30009 10.1418 5.75404 9.06092 5.56949C8.33318 5.44688 7.66338 5.48986 7.1277 5.79954C6.58249 6.11049 6.2087 6.66539 5.95078 7.35555C5.56826 8.38194 5.46271 9.66239 5.57779 11.0895C5.70238 12.7314 6.14283 14.5415 6.8412 16.3781C7.57846 18.2906 8.59269 20.2309 9.82755 22.046C11.0624 23.8624 12.5076 25.5524 14.0868 26.9833C15.5986 28.3661 17.2263 29.5025 18.8627 30.2899C20.346 31.0054 21.83 31.4314 23.2077 31.487C24.3847 31.535 25.4759 31.3075 26.3949 30.7779L26.4139 30.7652C27.3329 30.2343 28.0598 29.4127 28.6058 28.3876C29.2471 27.1678 29.6201 25.6788 29.7351 24.0406C29.8693 22.2407 29.6971 20.2701 29.2471 18.2678C28.7876 16.1974 28.0408 14.0953 27.0837 12.1298L32.0604 9.72433C33.2088 12.0779 34.0992 14.5997 34.6539 17.0809C35.219 19.6317 35.4197 22.1459 35.2571 24.4413C35.0753 26.8973 34.4627 29.1169 33.5056 30.946C32.4525 32.9419 30.9787 34.4941 29.1987 35.523L29.1606 35.547C27.371 36.5759 25.2656 37.0815 22.9871 36.9893C20.9102 36.9058 18.6802 36.3206 16.4502 35.2474C14.3733 34.2438 12.2869 32.8091 10.3442 31.0496C8.46809 29.3356 6.72613 27.3119 5.24288 25.1353V25.134C3.75963 22.9586 2.54383 20.6303 1.67324 18.3374C0.773296 15.9711 0.228086 13.6365 0.0558739 11.5256C-0.125862 9.19976 0.142378 7.11665 0.763772 5.44056C1.52008 3.42697 2.7835 1.93922 4.35246 1.03418L4.36198 1.03924Z" fill="currentColor"/>
</g>
<defs>
<clipPath id="clip0">
<rect width="35.4019" height="37" fill="currentColor"/>
</clipPath>
</defs>
</svg>
